<svg width="432" height="143" viewBox="0 0 432 143" fill="none" xmlns="http://www.w3.org/2000/svg">
<path d="M62.7827 40.3155H59.1584V30.5971H62.7827V40.3155ZM59.5123 39.9605H62.4287V30.9521H59.5123V39.9605ZM67.8255 40.3155H64.2742V30.5971H71.694C72.7572 30.5107 73.8155 30.8101 74.6769 31.4405C75.0479 31.7808 75.3353 32.2025 75.5172 32.6726C75.6984 33.1427 75.7692 33.6485 75.7239 34.1506C75.777 35.0182 75.5016 35.8739 74.953 36.5469C74.3039 37.2938 73.2237 37.6786 71.7428 37.6921C71.3698 37.702 68.5744 37.6921 67.8276 37.6921L67.8255 40.3155ZM64.626 39.9605H67.4716V37.3335H67.6493C67.6854 37.3335 71.3146 37.3449 71.7343 37.3335C73.114 37.3215 74.1057 36.9785 74.6854 36.309C75.1739 35.7002 75.4159 34.9296 75.365 34.1499C75.4082 33.7 75.348 33.2461 75.1887 32.8235C75.0287 32.4007 74.7746 32.0206 74.4448 31.7125C73.6463 31.1374 72.6687 30.8675 71.689 30.9513H64.6281L64.626 39.9605ZM70.9422 35.5088H67.4475V32.8634H70.9656C71.2148 32.8288 71.4689 32.858 71.7039 32.9482C71.9396 33.0385 72.1477 33.1869 72.3105 33.3795C72.4585 33.6259 72.5279 33.9113 72.5102 34.1982C72.5236 34.4645 72.4663 34.7296 72.3438 34.9664C72.176 35.1694 71.9587 35.3257 71.7131 35.4202C71.4682 35.5147 71.2027 35.5442 70.9422 35.506V35.5088ZM67.8014 35.1538H70.9422C71.5227 35.1538 71.8823 35.0324 72.0416 34.7825C72.1293 34.6009 72.169 34.3997 72.1569 34.1982C72.1725 33.9867 72.1265 33.7752 72.0253 33.589L72.021 33.5826C71.8526 33.3341 71.5177 33.2184 70.9656 33.2184H67.8014V35.1538ZM82.1831 40.459C79.0048 40.459 77.1077 39.6673 76.385 38.0393C76.2668 37.7248 76.1861 37.3973 76.1458 37.0637L76.1146 36.8593H79.896L79.9208 37.0084C79.9498 37.1598 80.0142 37.3022 80.1077 37.4244C80.257 37.6055 80.7554 37.9093 82.409 37.9093C84.3966 37.9093 84.3966 37.5593 84.3966 37.3712C84.3966 37.0538 84.1666 36.9452 82.5456 36.7719L82.2376 36.7428C81.6275 36.6853 80.8559 36.6122 80.5034 36.5816C77.5303 36.3118 76.2031 35.3853 76.2031 33.5783C76.2031 31.6805 78.4619 30.4543 81.958 30.4543C84.81 30.4543 86.6476 31.2084 87.4185 32.6972C87.6011 33.0436 87.7243 33.4186 87.7816 33.8063L87.8064 34.0058H84.0208L84.0052 33.8453C83.9903 33.7199 83.9372 33.6023 83.8523 33.5088C83.7107 33.3185 83.2633 33.004 81.8745 33.004C80.1693 33.004 79.9342 33.2226 79.9342 33.4584C79.9342 33.7729 80.4729 33.8844 82.1994 34.0697C82.9193 34.1286 84.0767 34.2479 84.4731 34.2962C86.9655 34.5674 88.0775 35.4712 88.0775 37.2277C88.0782 38.701 87.0554 40.459 82.1831 40.459ZM76.528 37.2143C76.5634 37.4484 76.6243 37.678 76.7099 37.8987C77.3682 39.3819 79.1591 40.104 82.1831 40.104C84.7116 40.104 87.7264 39.607 87.7264 37.2277C87.7264 35.6707 86.7425 34.8997 84.4356 34.649C84.0392 34.6007 82.8889 34.4822 82.1704 34.4225C80.3299 34.2223 79.5817 34.1158 79.5817 33.4584C79.5817 32.7782 80.388 32.649 81.8759 32.649C83.0517 32.649 83.8112 32.862 84.1333 33.2915C84.2211 33.3974 84.2876 33.5194 84.3287 33.6508H87.3966C87.335 33.3762 87.2373 33.111 87.1063 32.862C86.3985 31.4995 84.6692 30.8093 81.9594 30.8093C78.6785 30.8093 76.5584 31.8964 76.5584 33.5783C76.5584 35.1829 77.7484 35.9753 80.5359 36.2281C80.8899 36.2586 81.6607 36.3317 82.2723 36.3899L82.5824 36.4191C84.088 36.5781 84.752 36.6775 84.752 37.3712C84.752 38.1181 83.8933 38.2643 82.4104 38.2643C81.0385 38.2643 80.1721 38.0577 79.8373 37.6509C79.7339 37.5212 79.6561 37.373 79.6079 37.2143H76.528ZM94.8023 40.4469C91.1072 40.4469 89.0686 38.9481 89.0686 36.2259V30.5971H92.6447V36.2259C92.6447 37.1596 93.4778 37.6949 94.9297 37.6949C96.3171 37.6949 97.1786 37.1362 97.1786 36.238V30.5971H100.718V36.5241C100.721 39.0169 98.5631 40.4469 94.8001 40.4469H94.8023ZM89.4225 30.9521V36.2259C89.4225 39.5899 92.7905 40.0919 94.8023 40.0919C96.882 40.0919 100.37 39.6283 100.37 36.5241V30.9521H97.5382V36.238C97.5382 37.3385 96.516 38.0499 94.9353 38.0499C93.2832 38.0499 92.2964 37.3683 92.2964 36.2259V30.9521H89.4225ZM115.716 40.3155H112.341V35.9277L110.427 40.3155H107.483L105.589 35.9363V40.3155H102.202V30.5971H106.657L108.972 35.9554L111.398 30.5971H115.72L115.716 40.3155ZM112.695 39.9605H115.362V30.9521H111.623L108.96 36.8301L106.422 30.9521H102.553V39.9605H105.232V34.228L107.709 39.9627H110.187L112.691 34.2365L112.695 39.9605ZM13.4877 30.7746H10.264V40.138H19.1718V37.6452H13.4877V30.7746ZM25.6785 30.5616C21.5637 30.5616 19.3997 32.5176 19.3997 35.3896C19.3997 38.6343 21.6713 40.28 25.6785 40.28C30.0899 40.28 31.9452 38.3716 31.9452 35.3896C31.9452 32.3614 29.8521 30.5601 25.6785 30.5601V30.5616ZM25.6665 32.9947C25.9466 32.9934 26.2265 33.0098 26.5046 33.0437L22.9008 36.6583C22.7303 36.2714 22.6471 35.8515 22.6573 35.4286C22.6573 33.9596 23.3949 32.9933 25.6665 32.9933V32.9947ZM25.6785 37.8852C25.4086 37.8864 25.1389 37.8712 24.8708 37.8398L28.4809 34.2188C28.6451 34.5993 28.7237 35.0113 28.711 35.4258C28.711 36.855 28.0315 37.8838 25.6785 37.8838V37.8852ZM38.3323 36.6072H41.6501C41.6012 36.8382 41.4994 37.0545 41.3528 37.2391C40.6649 37.8011 39.7871 38.0746 38.9028 38.0024C38.4577 38.0501 38.0077 38.0014 37.583 37.8594C37.1583 37.7174 36.7691 37.4855 36.4416 37.1795C36.1061 36.6859 35.9468 36.0932 35.9893 35.4975C35.935 34.8732 36.1083 34.2504 36.477 33.7445C36.9406 33.2191 37.7257 32.9926 38.8795 32.9926C39.6136 32.9316 40.3468 33.1208 40.9606 33.5294C41.1541 33.6835 41.2987 33.8907 41.3768 34.1258H44.4539C44.4316 33.7384 44.3387 33.3585 44.18 33.0047C43.4431 31.5016 41.7301 30.607 38.8172 30.607C36.2837 30.607 34.5835 31.3823 33.6441 32.5517C33.0237 33.3962 32.7053 34.4257 32.7402 35.474C32.7 36.5461 33.0102 37.602 33.6236 38.4809C34.5516 39.6879 36.2045 40.2815 38.1907 40.2815C39.5113 40.3738 40.8228 40.0029 41.9007 39.2321L41.9842 40.138H44.5403V34.5915H38.3323V36.6072ZM51.7952 30.5594C47.6811 30.5594 45.5164 32.5155 45.5164 35.3874C45.5164 38.6321 47.7873 40.2779 51.7952 40.2779C56.2073 40.2779 58.0626 38.3694 58.0626 35.3874C58.0626 32.3614 55.9695 30.5601 51.7952 30.5601V30.5594ZM51.7839 32.9926C52.0566 32.9918 52.3291 33.0074 52.6 33.0395L49.0105 36.642C48.8452 36.2594 48.7648 35.8454 48.7747 35.4286C48.7719 33.9596 49.5123 32.9933 51.7839 32.9933V32.9926ZM51.7952 37.8831C51.5181 37.8843 51.2413 37.8682 50.9663 37.8348L54.5884 34.201C54.7588 34.5865 54.8404 35.0057 54.827 35.4272C54.8284 36.855 54.1517 37.8838 51.7952 37.8838V37.8831Z" fill="#080829"/>
<path d="M182.703 35.3434C182.436 35.6141 182.232 35.9408 182.105 36.3002C181.977 36.6597 181.93 37.0431 181.967 37.423L181.954 37.4102C181.991 37.8574 181.932 38.3074 181.779 38.7289C181.626 39.1504 181.384 39.5332 181.069 39.8505C180.755 40.1678 180.375 40.4121 179.957 40.5662C179.539 40.7204 179.093 40.7807 178.65 40.7429L178.662 40.7557C178.132 40.7059 177.599 40.8223 177.137 41.0891C176.675 41.3558 176.305 41.7599 176.079 42.2462C175.853 42.7326 175.78 43.2774 175.872 43.8066C175.964 44.3358 176.216 44.8235 176.593 45.2032C176.969 45.5829 177.453 45.8362 177.978 45.9284C178.503 46.0207 179.043 45.9474 179.525 45.7188C180.007 45.49 180.407 45.1169 180.671 44.6503C180.935 44.1837 181.05 43.6463 181 43.1115L181.014 43.1243C180.976 42.677 181.036 42.227 181.189 41.8055C181.341 41.3841 181.584 41.0013 181.898 40.6839C182.213 40.3666 182.592 40.1223 183.01 39.9682C183.428 39.814 183.874 39.7538 184.318 39.7915L184.304 39.7788C184.738 39.818 185.174 39.7464 185.572 39.5704C185.97 39.3945 186.318 39.1199 186.584 38.7723C186.849 38.4246 187.023 38.0149 187.089 37.5813C187.156 37.1478 187.113 36.7042 186.964 36.2919C186.816 35.8796 186.566 35.5119 186.239 35.2227C185.912 34.9335 185.518 34.7323 185.093 34.6377C184.668 34.5431 184.227 34.5582 183.809 34.6815C183.392 34.8049 183.012 35.0325 182.705 35.3434H182.703Z" fill="#080829"/>
<path d="M177.51 39.0816L177.497 39.0688C177.874 39.1071 178.254 39.0604 178.611 38.9322C178.968 38.804 179.292 38.5974 179.56 38.3274C179.828 38.0574 180.033 37.7307 180.16 37.3709C180.287 37.0111 180.334 36.6274 180.296 36.2473L180.31 36.26C180.272 35.8128 180.332 35.3628 180.485 34.9413C180.638 34.5198 180.88 34.1371 181.194 33.8197C181.509 33.5024 181.888 33.2581 182.306 33.104C182.724 32.9499 183.17 32.8895 183.614 32.9273L183.6 32.9145C184.131 32.9648 184.664 32.8488 185.126 32.5823C185.589 32.3158 185.959 31.912 186.185 31.4257C186.412 30.9394 186.484 30.3945 186.393 29.8652C186.301 29.3359 186.05 28.848 185.673 28.4681C185.296 28.0881 184.813 27.8346 184.288 27.7422C183.763 27.6496 183.223 27.7228 182.741 27.9514C182.259 28.18 181.858 28.5531 181.594 29.0197C181.33 29.4863 181.215 30.0237 181.265 30.5587L181.252 30.5452C181.29 30.9925 181.23 31.4425 181.077 31.8641C180.924 32.2857 180.682 32.6685 180.368 32.9859C180.053 33.3032 179.674 33.5475 179.256 33.7015C178.838 33.8556 178.391 33.9158 177.948 33.878L177.961 33.8915C177.584 33.8532 177.203 33.8998 176.847 34.0281C176.49 34.1562 176.166 34.3628 175.898 34.6329C175.63 34.9029 175.425 35.2296 175.297 35.5894C175.17 35.9491 175.123 36.3329 175.161 36.713L175.149 36.7002C175.186 37.1474 175.126 37.5974 174.973 38.0188C174.82 38.4402 174.578 38.823 174.264 39.1403C173.949 39.4576 173.569 39.7018 173.152 39.856C172.734 40.0102 172.288 40.0706 171.844 40.033L171.857 40.0458C171.327 39.9955 170.794 40.1115 170.331 40.378C169.869 40.6444 169.499 41.0483 169.272 41.5346C169.045 42.0208 168.973 42.5658 169.065 43.0951C169.156 43.6244 169.408 44.1123 169.784 44.4922C170.161 44.8722 170.645 45.1257 171.169 45.2181C171.694 45.3105 172.235 45.2375 172.717 45.0089C173.199 44.7802 173.599 44.4072 173.863 43.9405C174.127 43.4739 174.242 42.9365 174.193 42.4015L174.206 42.4143C174.169 41.9671 174.228 41.5171 174.381 41.0956C174.534 40.6741 174.776 40.2913 175.091 39.974C175.405 39.6567 175.785 39.4124 176.203 39.2582C176.621 39.1041 177.067 39.0438 177.51 39.0816Z" fill="#080829"/>
<path d="M172.793 37.6566C173.059 37.3859 173.264 37.0592 173.391 36.6997C173.518 36.3403 173.565 35.9569 173.528 35.577L173.542 35.5898C173.504 35.1425 173.564 34.6923 173.717 34.2707C173.87 33.8491 174.112 33.4662 174.427 33.1489C174.742 32.8315 175.121 32.5873 175.539 32.4333C175.957 32.2792 176.404 32.2191 176.847 32.257L176.834 32.2443C177.364 32.2944 177.897 32.1783 178.359 31.9118C178.821 31.6455 179.191 31.2417 179.418 30.7555C179.644 30.2695 179.717 29.7247 179.625 29.1956C179.533 28.6665 179.282 28.1787 178.905 27.799C178.529 27.4192 178.045 27.1657 177.521 27.0733C176.996 26.9808 176.456 27.0538 175.974 27.2823C175.492 27.5108 175.092 27.8837 174.828 28.3501C174.564 28.8165 174.449 29.3537 174.498 29.8885L174.485 29.8757C174.523 30.3229 174.463 30.7729 174.31 31.1945C174.158 31.6159 173.915 31.9987 173.601 32.316C173.286 32.6333 172.907 32.8777 172.489 33.0317C172.071 33.1859 171.625 33.2462 171.181 33.2084L171.194 33.2212C170.761 33.182 170.325 33.2538 169.926 33.4298C169.528 33.6058 169.18 33.8805 168.915 34.2282C168.65 34.5759 168.476 34.9856 168.409 35.4191C168.343 35.8527 168.386 36.2962 168.535 36.7084C168.684 37.1207 168.933 37.4884 169.26 37.7775C169.587 38.0667 169.982 38.2678 170.406 38.3624C170.831 38.4569 171.272 38.4418 171.69 38.3185C172.107 38.1951 172.487 37.9674 172.794 37.6566H172.793Z" fill="#080829"/>
<path d="M194.598 30.5751H196.688V40.8367H194.598V30.5751Z" fill="#080829"/>
<path d="M197.872 37.3229C197.869 36.5854 198.083 35.8637 198.487 35.2492C198.891 34.6346 199.467 34.1548 200.142 33.8705C200.817 33.5863 201.56 33.5104 202.277 33.6524C202.994 33.7944 203.654 34.1481 204.172 34.6685C204.69 35.1889 205.043 35.8527 205.187 36.5757C205.331 37.2988 205.258 38.0486 204.979 38.7302C204.7 39.4117 204.227 39.9945 203.619 40.4045C203.011 40.8145 202.297 41.0334 201.566 41.0334C201.08 41.0389 200.599 40.9469 200.149 40.7626C199.699 40.5783 199.291 40.3054 198.947 39.9599C198.603 39.6145 198.331 39.2034 198.146 38.7506C197.962 38.2978 197.869 37.8125 197.872 37.3229ZM203.168 37.3229C203.16 37.0051 203.058 36.6968 202.877 36.4368C202.695 36.1768 202.442 35.9764 202.148 35.8609C201.855 35.7453 201.534 35.7196 201.225 35.787C200.917 35.8545 200.636 36.012 200.416 36.24C200.196 36.4679 200.048 36.7561 199.99 37.0687C199.931 37.3811 199.966 37.704 200.088 37.997C200.211 38.2899 200.417 38.5399 200.679 38.7156C200.942 38.8913 201.25 38.985 201.566 38.985C201.782 38.9908 201.996 38.9514 202.196 38.8694C202.396 38.7873 202.577 38.6643 202.728 38.5082C202.879 38.352 202.995 38.166 203.071 37.9621C203.147 37.7581 203.18 37.5405 203.168 37.3229Z" fill="#080829"/>
<path d="M213.591 33.8084V40.4824C213.591 42.8438 211.765 43.8421 209.912 43.8421C209.259 43.8914 208.606 43.7584 208.023 43.4578C207.441 43.1572 206.951 42.7006 206.609 42.1381L208.393 41.0979C208.537 41.3912 208.766 41.6331 209.05 41.7913C209.334 41.9495 209.659 42.0165 209.982 41.9833C210.188 42.0121 210.398 41.9938 210.596 41.9297C210.794 41.8656 210.976 41.7574 211.127 41.613C211.278 41.4686 211.395 41.2918 211.47 41.0955C211.544 40.8994 211.573 40.6888 211.556 40.4795V39.837C211.311 40.1391 211 40.3791 210.646 40.5378C210.293 40.6965 209.908 40.7694 209.521 40.7508C208.602 40.7215 207.73 40.3326 207.09 39.6662C206.449 38.9998 206.091 38.1083 206.091 37.1805C206.091 36.2527 206.449 35.3612 207.09 34.6949C207.73 34.0285 208.602 33.6395 209.521 33.6103C209.908 33.5916 210.293 33.6645 210.646 33.8232C211 33.9819 211.311 34.2219 211.556 34.5241V33.807L213.591 33.8084ZM211.557 37.1816C211.571 36.8418 211.484 36.5054 211.307 36.216C211.13 35.9264 210.871 35.697 210.563 35.5572C210.256 35.4174 209.914 35.3736 209.582 35.4314C209.25 35.4892 208.942 35.6459 208.699 35.8816C208.456 36.1172 208.288 36.4207 208.217 36.7533C208.146 37.0859 208.176 37.4322 208.302 37.7477C208.428 38.0631 208.645 38.3333 208.925 38.5235C209.204 38.7136 209.534 38.815 209.871 38.8146C210.091 38.8301 210.311 38.799 210.518 38.7233C210.725 38.6476 210.914 38.529 211.073 38.3752C211.232 38.2213 211.357 38.0356 211.44 37.83C211.524 37.6245 211.563 37.4036 211.557 37.1816Z" fill="#080829"/>
<path d="M214.775 37.3229C214.772 36.5854 214.986 35.8637 215.39 35.2492C215.795 34.6346 216.37 34.1548 217.045 33.8705C217.72 33.5863 218.463 33.5104 219.18 33.6524C219.897 33.7944 220.557 34.1481 221.075 34.6685C221.593 35.1889 221.946 35.8527 222.09 36.5757C222.234 37.2988 222.161 38.0486 221.882 38.7302C221.603 39.4117 221.13 39.9945 220.522 40.4045C219.914 40.8145 219.2 41.0334 218.469 41.0334C217.983 41.0389 217.502 40.9469 217.052 40.7626C216.602 40.5783 216.194 40.3054 215.85 39.9599C215.506 39.6145 215.234 39.2034 215.049 38.7506C214.865 38.2978 214.772 37.8125 214.775 37.3229ZM220.071 37.3229C220.063 37.0051 219.961 36.6968 219.78 36.4368C219.598 36.1768 219.345 35.9764 219.051 35.8609C218.758 35.7453 218.437 35.7196 218.129 35.787C217.82 35.8545 217.539 36.012 217.319 36.24C217.099 36.4679 216.951 36.7561 216.893 37.0687C216.834 37.3811 216.869 37.704 216.991 37.997C217.114 38.2899 217.32 38.5399 217.582 38.7156C217.845 38.8913 218.153 38.985 218.469 38.985C218.684 38.9908 218.899 38.9514 219.099 38.8694C219.299 38.7873 219.48 38.6643 219.631 38.5082C219.782 38.352 219.899 38.166 219.974 37.9621C220.05 37.7581 220.083 37.5405 220.071 37.3229Z" fill="#080829"/>
<path d="M223.137 31.9248C223.137 31.6745 223.21 31.4299 223.348 31.2219C223.486 31.0138 223.682 30.8516 223.911 30.7558C224.141 30.6601 224.393 30.6351 224.636 30.6838C224.879 30.7327 225.103 30.8532 225.278 31.0301C225.454 31.207 225.573 31.4325 225.622 31.6779C225.67 31.9233 225.645 32.1777 225.55 32.4089C225.455 32.6401 225.294 32.8378 225.088 32.9768C224.882 33.1158 224.639 33.19 224.391 33.19C224.06 33.1866 223.742 33.0523 223.508 32.8157C223.273 32.5792 223.14 32.2593 223.137 31.9248ZM223.348 33.8084H225.439V40.8374H223.345L223.348 33.8084Z" fill="#080829"/>
<path d="M234.466 37.3229C234.49 37.7874 234.423 38.2522 234.269 38.6905C234.114 39.1288 233.875 39.5319 233.566 39.8767C233.256 40.2215 232.883 40.5013 232.465 40.6998C232.048 40.8982 231.596 41.0116 231.136 41.0333C230.748 41.0546 230.36 40.9887 230.002 40.8404C229.643 40.692 229.321 40.465 229.06 40.1757V43.6483H226.969V33.8084H229.06V34.4687C229.321 34.1796 229.643 33.9526 230.002 33.8045C230.361 33.6562 230.748 33.5904 231.136 33.6117C231.597 33.6334 232.048 33.7467 232.465 33.9452C232.883 34.1437 233.257 34.4234 233.566 34.7684C233.876 35.1133 234.115 35.5166 234.269 35.955C234.423 36.3933 234.491 36.8582 234.466 37.3229ZM232.376 37.3229C232.367 36.9939 232.263 36.6747 232.077 36.4051C231.889 36.1356 231.628 35.9277 231.323 35.8076C231.02 35.6874 230.688 35.6602 230.369 35.7295C230.05 35.7987 229.759 35.9613 229.531 36.1969C229.303 36.4325 229.149 36.7307 229.089 37.054C229.028 37.3773 229.063 37.7115 229.19 38.0147C229.317 38.3179 229.529 38.5767 229.801 38.7586C230.073 38.9405 230.392 39.0376 230.718 39.0375C230.942 39.0476 231.166 39.0098 231.374 38.9266C231.582 38.8434 231.771 38.7167 231.928 38.5548C232.084 38.3928 232.205 38.1994 232.282 37.9871C232.36 37.7749 232.391 37.5484 232.376 37.3229Z" fill="#080829"/>
<path d="M240.918 38.728C240.918 40.3446 239.525 41.0333 238.02 41.0333C237.412 41.0889 236.801 40.9592 236.267 40.661C235.733 40.3627 235.299 39.9098 235.023 39.3606L236.834 38.3204C236.908 38.5743 237.065 38.7951 237.28 38.9461C237.495 39.097 237.756 39.1689 238.017 39.1497C238.518 39.1497 238.769 38.9949 238.769 38.7145C238.769 37.9406 235.341 38.3488 235.341 35.9171C235.341 34.3842 236.623 33.6117 238.073 33.6117C238.617 33.5943 239.157 33.7247 239.635 33.9891C240.112 34.2537 240.512 34.6426 240.79 35.1155L239.006 36.0853C238.928 35.9012 238.798 35.7444 238.631 35.6344C238.465 35.5244 238.271 35.4662 238.073 35.4669C237.71 35.4669 237.487 35.6089 237.487 35.8603C237.49 36.6619 240.918 36.1272 240.918 38.728Z" fill="#080829"/>
<path d="M248.554 33.8084V40.8374H246.464V40.1764C246.222 40.4681 245.916 40.6979 245.57 40.847C245.224 40.9961 244.848 41.0602 244.472 41.0341C243.064 41.0341 241.867 40.0223 241.867 38.1231V33.8084H243.958V37.8142C243.94 37.9816 243.959 38.1509 244.014 38.3102C244.067 38.4695 244.155 38.615 244.27 38.7367C244.386 38.8583 244.526 38.9531 244.682 39.0145C244.836 39.0759 245.003 39.1025 245.17 39.0922C245.937 39.0922 246.466 38.6428 246.466 37.6445V33.8105L248.554 33.8084Z" fill="#080829"/>
<path d="M260.542 36.5213V40.8367H258.451V36.7037C258.451 36.0008 258.117 35.5514 257.448 35.5514C256.751 35.5514 256.361 36.0435 256.361 36.8727V40.8367H254.271V36.7037C254.271 36.0008 253.937 35.5514 253.267 35.5514C252.57 35.5514 252.18 36.0435 252.18 36.8727V40.8367H250.09V33.8077H252.18V34.4538C252.397 34.1671 252.681 33.9398 253.007 33.7926C253.334 33.6454 253.692 33.5829 254.048 33.611C254.405 33.5933 254.762 33.6695 255.082 33.8319C255.401 33.9945 255.674 34.2378 255.873 34.5382C256.105 34.2239 256.412 33.974 256.765 33.8118C257.118 33.6497 257.507 33.5806 257.894 33.611C259.494 33.6117 260.542 34.764 260.542 36.5213Z" fill="#080829"/>
<path d="M262.31 33.7651C263.167 33.7651 263.862 33.0644 263.862 32.2002C263.862 31.336 263.167 30.6354 262.31 30.6354C261.454 30.6354 260.759 31.336 260.759 32.2002C260.759 33.0644 261.454 33.7651 262.31 33.7651Z" fill="#080829"/>
<path d="M354.017 41.7469C353.598 41.7698 353.184 41.6497 352.841 41.4061C352.698 41.2991 352.583 41.1584 352.505 40.9964C352.428 40.8343 352.391 40.6557 352.398 40.476V33.8943C352.394 33.8665 352.397 33.8382 352.406 33.8116C352.415 33.7851 352.43 33.7609 352.45 33.7411C352.469 33.7212 352.493 33.7062 352.52 33.697C352.546 33.6879 352.574 33.6849 352.602 33.6884H353.784C353.918 33.6884 353.981 33.7594 353.981 33.8943V39.9648C353.981 40.2346 354.101 40.3695 354.347 40.3695C354.452 40.3739 354.556 40.3619 354.657 40.334C354.798 40.334 354.875 40.3766 354.882 40.5044L354.988 41.3919C354.993 41.4178 354.993 41.4445 354.986 41.4702C354.981 41.4958 354.969 41.5199 354.953 41.5407C354.937 41.5616 354.917 41.5787 354.894 41.5911C354.871 41.6034 354.845 41.6105 354.819 41.612C354.56 41.6983 354.289 41.7438 354.017 41.7469Z" fill="#080829"/>
<path d="M360.668 40.9872C360.074 41.4825 359.328 41.7533 358.557 41.7533C357.786 41.7533 357.039 41.4825 356.445 40.9872C355.923 40.4554 355.63 39.7371 355.63 38.9886C355.63 38.24 355.923 37.5217 356.445 36.9899C357.04 36.4973 357.787 36.228 358.557 36.228C359.327 36.228 360.073 36.4973 360.668 36.9899C361.179 37.5266 361.464 38.2414 361.464 38.985C361.464 39.7286 361.179 40.4434 360.668 40.9801V40.9872ZM357.557 40.05C357.833 40.302 358.192 40.4415 358.564 40.4415C358.936 40.4415 359.295 40.302 359.57 40.05C359.82 39.7606 359.957 39.3899 359.957 39.0063C359.957 38.6227 359.82 38.2521 359.57 37.9626C359.295 37.7107 358.936 37.5711 358.564 37.5711C358.192 37.5711 357.833 37.7107 357.557 37.9626C357.308 38.2521 357.17 38.6227 357.17 39.0063C357.17 39.3899 357.308 39.7606 357.557 40.05Z" fill="#080829"/>
<path d="M367.975 36.4077C368.109 36.4077 368.172 36.4787 368.172 36.6136V41.7043C368.184 42.0478 368.121 42.3899 367.986 42.7055C367.85 43.0212 367.647 43.3025 367.391 43.529C366.822 44.0185 366.09 44.2722 365.342 44.239C364.667 44.2629 364.002 44.077 363.435 43.7065C363.193 43.5462 362.986 43.3374 362.827 43.0931C362.669 42.8489 362.562 42.5743 362.513 42.2865C362.513 42.1445 362.513 42.0806 362.703 42.0806H363.885C363.936 42.0823 363.984 42.0986 364.025 42.1276C364.067 42.1566 364.099 42.1969 364.118 42.2439C364.194 42.4595 364.347 42.639 364.547 42.748C364.791 42.8747 365.061 42.9381 365.335 42.9326C365.501 42.9417 365.666 42.9175 365.822 42.8614C365.978 42.8054 366.121 42.7185 366.243 42.606C366.355 42.4883 366.442 42.3489 366.499 42.1964C366.556 42.0439 366.581 41.8813 366.574 41.7185V41.2712C366.151 41.5853 365.636 41.7477 365.11 41.7327C364.742 41.7462 364.376 41.6845 364.032 41.5516C363.689 41.4186 363.375 41.2169 363.111 40.9588C362.604 40.4292 362.32 39.7215 362.32 38.985C362.32 38.2485 362.604 37.5408 363.111 37.0112C363.377 36.7553 363.69 36.5556 364.034 36.4239C364.377 36.2922 364.743 36.2312 365.11 36.2444C365.651 36.23 366.18 36.4029 366.61 36.7343V36.6207C366.606 36.5935 366.609 36.5659 366.618 36.5399C366.626 36.5139 366.641 36.4903 366.66 36.4705C366.678 36.4508 366.701 36.4356 366.727 36.4259C366.752 36.4163 366.78 36.4125 366.807 36.4148L367.975 36.4077ZM365.244 40.4689C365.425 40.4746 365.606 40.44 365.772 40.3676C365.939 40.2952 366.088 40.1868 366.208 40.05C366.442 39.7452 366.569 39.3705 366.569 38.985C366.569 38.5994 366.442 38.2249 366.208 37.92C366.088 37.785 365.94 37.6782 365.775 37.6071C365.609 37.5359 365.431 37.5022 365.251 37.5082C365.068 37.5024 364.885 37.5368 364.716 37.6091C364.547 37.6815 364.396 37.79 364.273 37.9271C364.013 38.2187 363.877 38.6007 363.892 38.9921C363.88 39.3796 364.013 39.7576 364.265 40.05C364.389 40.1867 364.54 40.295 364.709 40.3673C364.878 40.4396 365.061 40.4742 365.244 40.4689Z" fill="#080829"/>
<path d="M374.247 40.9872C373.652 41.4799 372.905 41.7491 372.135 41.7491C371.365 41.7491 370.619 41.4799 370.023 40.9872C369.513 40.4493 369.228 39.7333 369.228 38.9885C369.228 38.2437 369.513 37.5278 370.023 36.9899C370.619 36.4985 371.365 36.23 372.135 36.23C372.905 36.23 373.651 36.4985 374.247 36.9899C374.757 37.5266 375.042 38.2414 375.042 38.985C375.042 39.7286 374.757 40.4434 374.247 40.9801V40.9872ZM371.129 40.05C371.264 40.1795 371.423 40.2807 371.597 40.3477C371.771 40.4147 371.956 40.4462 372.142 40.4405C372.327 40.4453 372.511 40.4133 372.684 40.3463C372.857 40.2793 373.015 40.1786 373.149 40.05C373.394 39.7586 373.529 39.3887 373.529 39.0063C373.529 38.6239 373.394 38.254 373.149 37.9626C373.015 37.8339 372.857 37.7333 372.684 37.6662C372.511 37.5993 372.327 37.5673 372.142 37.5721C371.956 37.5663 371.771 37.5979 371.597 37.6649C371.423 37.7319 371.264 37.8331 371.129 37.9626C370.883 38.254 370.748 38.6239 370.748 39.0063C370.748 39.3887 370.883 39.7586 371.129 40.05Z" fill="#080829"/>
<path d="M377.583 35.2007C377.398 35.365 377.158 35.4555 376.911 35.4555C376.664 35.4555 376.425 35.365 376.239 35.2007C376.155 35.1204 376.087 35.0236 376.041 34.9162C375.996 34.8087 375.972 34.6929 375.972 34.5759C375.972 34.4589 375.996 34.3432 376.041 34.2357C376.087 34.1283 376.155 34.0314 376.239 33.9511C376.427 33.791 376.665 33.7031 376.911 33.7031C377.158 33.7031 377.396 33.791 377.583 33.9511C377.668 34.0314 377.735 34.1283 377.781 34.2357C377.827 34.3432 377.85 34.4589 377.85 34.5759C377.85 34.6929 377.827 34.8087 377.781 34.9162C377.735 35.0236 377.668 35.1204 377.583 35.2007ZM377.731 41.7469C377.313 41.7677 376.899 41.6477 376.556 41.4061C376.415 41.2975 376.301 41.1564 376.226 40.9945C376.15 40.8327 376.113 40.6549 376.119 40.476V36.6136C376.116 36.5858 376.119 36.5575 376.128 36.5309C376.137 36.5044 376.152 36.4803 376.172 36.4604C376.191 36.4405 376.215 36.4255 376.241 36.4164C376.268 36.4072 376.296 36.4043 376.323 36.4077H377.506C377.64 36.4077 377.703 36.4787 377.703 36.6136V39.9648C377.703 40.2346 377.823 40.3695 378.062 40.3695C378.169 40.3734 378.275 40.3614 378.379 40.334C378.52 40.334 378.597 40.3766 378.604 40.5044L378.71 41.3919C378.715 41.4178 378.714 41.4445 378.708 41.4702C378.702 41.4958 378.691 41.5199 378.675 41.5407C378.659 41.5616 378.639 41.5788 378.615 41.5911C378.592 41.6034 378.567 41.6105 378.541 41.612C378.28 41.6989 378.007 41.7444 377.731 41.7469Z" fill="#080829"/>
<path d="M383.06 36.2373C383.429 36.2226 383.798 36.2829 384.144 36.4146C384.49 36.5463 384.806 36.7468 385.073 37.0041C385.571 37.5429 385.847 38.2521 385.847 38.9885C385.847 39.725 385.571 40.4342 385.073 40.973C384.807 41.2326 384.491 41.4351 384.145 41.568C383.799 41.7011 383.43 41.762 383.06 41.7469C382.533 41.7588 382.016 41.5967 381.589 41.2854V43.8485C381.589 43.9834 381.518 44.0473 381.385 44.0473H380.202C380.175 44.0524 380.147 44.0508 380.121 44.0426C380.095 44.0344 380.071 44.0199 380.051 44.0003C380.032 43.9807 380.018 43.9566 380.01 43.9302C380.001 43.9037 380 43.8757 380.005 43.8485V38.0265C380.013 37.9696 380.008 37.9115 379.99 37.8568C379.973 37.8022 379.942 37.7525 379.901 37.7118C379.861 37.6711 379.812 37.6405 379.758 37.6224C379.704 37.6043 379.646 37.5992 379.59 37.6076H379.357C379.202 37.6076 379.125 37.5508 379.125 37.4372V36.5994C379.122 36.5476 379.136 36.496 379.165 36.4534C379.195 36.4108 379.238 36.3796 379.287 36.3651C379.53 36.2759 379.788 36.2325 380.047 36.2373C380.305 36.2142 380.565 36.2695 380.792 36.396C381.019 36.5225 381.203 36.7144 381.321 36.9473C381.548 36.716 381.819 36.5337 382.118 36.4116C382.417 36.2896 382.738 36.2302 383.06 36.2373ZM381.962 40.05C382.087 40.1823 382.238 40.2876 382.405 40.3596C382.572 40.4315 382.752 40.4685 382.933 40.4685C383.115 40.4685 383.294 40.4315 383.461 40.3596C383.628 40.2876 383.779 40.1823 383.905 40.05C384.169 39.7526 384.308 39.3629 384.292 38.9637C384.31 38.5642 384.171 38.1736 383.905 37.8774C383.779 37.7451 383.628 37.6398 383.461 37.5678C383.294 37.4959 383.115 37.4589 382.933 37.4589C382.752 37.4589 382.572 37.4959 382.405 37.5678C382.238 37.6398 382.087 37.7451 381.962 37.8774C381.706 38.1789 381.573 38.567 381.589 38.9637C381.575 39.3601 381.708 39.7475 381.962 40.05Z" fill="#080829"/>
<path d="M389.17 41.7469C388.538 41.7731 387.911 41.6206 387.361 41.3067C387.14 41.1725 386.952 40.9898 386.81 40.7723C386.669 40.5547 386.578 40.3078 386.544 40.05C386.544 39.908 386.594 39.837 386.748 39.837H387.783C387.832 39.8389 387.88 39.8545 387.921 39.8821C387.962 39.9097 387.995 39.9481 388.015 39.9932C388.163 40.3766 388.55 40.5683 389.17 40.5683C389.386 40.5782 389.601 40.5343 389.796 40.4405C389.864 40.4098 389.922 40.3612 389.964 40.3C390.006 40.2387 390.031 40.167 390.036 40.0926C390.036 39.908 389.923 39.7802 389.698 39.695C389.43 39.6053 389.154 39.5457 388.874 39.5175C388.542 39.4796 388.213 39.4203 387.889 39.34C387.573 39.268 387.286 39.1023 387.065 38.8643C386.935 38.7025 386.839 38.5154 386.784 38.3147C386.728 38.114 386.714 37.9039 386.742 37.6975C386.77 37.491 386.841 37.2926 386.948 37.1148C387.056 36.9368 387.199 36.7832 387.368 36.6633C387.875 36.3373 388.47 36.1785 389.071 36.2089C389.653 36.1891 390.229 36.3342 390.733 36.6278C390.935 36.7439 391.111 36.9041 391.244 37.0969C391.379 37.2898 391.468 37.5103 391.507 37.7425C391.507 37.8845 391.443 37.9555 391.317 37.9555H390.275C390.231 37.9581 390.188 37.9473 390.15 37.9245C390.112 37.9017 390.082 37.8679 390.064 37.8277C389.994 37.6595 389.863 37.5248 389.698 37.4514C389.511 37.353 389.303 37.304 389.092 37.3094C388.886 37.2981 388.68 37.3395 388.494 37.4301C388.429 37.4556 388.372 37.5004 388.331 37.5586C388.291 37.6168 388.27 37.6857 388.269 37.7567C388.273 37.8538 388.308 37.9469 388.369 38.0223C388.43 38.0976 388.513 38.1514 388.607 38.1756C388.877 38.2783 389.158 38.3498 389.444 38.3886C389.774 38.4323 390.1 38.4939 390.423 38.5732C390.738 38.6452 391.025 38.8109 391.246 39.0489C391.365 39.18 391.456 39.3334 391.515 39.5004C391.574 39.6674 391.6 39.8445 391.591 40.0216C391.598 40.267 391.54 40.5098 391.425 40.7264C391.31 40.9429 391.142 41.1257 390.937 41.257C390.411 41.5975 389.794 41.7684 389.17 41.7469Z" fill="#080829"/>
<path d="M399.032 41.3919C399.036 41.4171 399.034 41.4429 399.029 41.4677C399.022 41.4925 399.012 41.5158 398.996 41.5363C398.982 41.5568 398.963 41.5741 398.941 41.5871C398.919 41.6001 398.895 41.6085 398.87 41.612C398.613 41.6966 398.345 41.7421 398.074 41.7469C397.807 41.7749 397.537 41.7327 397.29 41.6244C397.043 41.5162 396.828 41.3457 396.666 41.1292C396.17 41.5604 395.526 41.7816 394.872 41.7469C394.567 41.761 394.264 41.7108 393.98 41.5996C393.697 41.4883 393.439 41.3184 393.224 41.1008C393.011 40.8728 392.846 40.6037 392.738 40.3097C392.63 40.0157 392.582 39.7028 392.598 39.3897V36.6136C392.598 36.4787 392.661 36.4077 392.795 36.4077H393.978C394.111 36.4077 394.175 36.4787 394.175 36.6136V39.1767C394.162 39.4961 394.27 39.8083 394.477 40.05C394.581 40.1607 394.707 40.2478 394.846 40.3054C394.986 40.3629 395.136 40.3897 395.287 40.3837C395.441 40.3905 395.595 40.3664 395.74 40.3128C395.885 40.2592 396.018 40.1771 396.132 40.0713C396.239 39.9598 396.322 39.8273 396.376 39.682C396.431 39.5367 396.455 39.3816 396.448 39.2264V36.6136C396.448 36.4787 396.512 36.4077 396.645 36.4077H397.842C397.976 36.4077 398.039 36.4787 398.039 36.6136V39.9577C398.039 40.2346 398.159 40.3695 398.391 40.3695C398.5 40.3738 398.609 40.3618 398.715 40.334C398.742 40.3265 398.769 40.3251 398.797 40.33C398.824 40.335 398.849 40.3461 398.872 40.3625C398.894 40.3789 398.913 40.4002 398.925 40.4248C398.939 40.4493 398.946 40.4766 398.947 40.5044L399.032 41.3919Z" fill="#080829"/>
<path d="M410.217 41.3919C410.223 41.4173 410.224 41.4439 410.219 41.4695C410.213 41.4952 410.203 41.5195 410.187 41.5405C410.172 41.5615 410.152 41.5789 410.129 41.5912C410.106 41.6036 410.081 41.6107 410.055 41.612C409.793 41.6979 409.521 41.7433 409.245 41.7469C408.827 41.7687 408.413 41.6487 408.07 41.4061C407.921 41.3022 407.801 41.163 407.719 41.0007C407.636 40.8384 407.595 40.6582 407.598 40.476V38.8075C407.613 38.4892 407.507 38.177 407.303 37.9342C407.204 37.8233 407.082 37.7358 406.946 37.6781C406.809 37.6203 406.662 37.5939 406.514 37.6005C406.381 37.5955 406.249 37.6209 406.126 37.6751C406.005 37.7292 405.897 37.8105 405.81 37.9129C405.624 38.1508 405.529 38.4481 405.543 38.7507V41.3706C405.543 41.5055 405.479 41.5765 405.346 41.5765H404.156C404.129 41.58 404.101 41.577 404.074 41.5679C404.048 41.5588 404.024 41.5437 404.004 41.5238C403.984 41.504 403.97 41.4799 403.96 41.4533C403.951 41.4268 403.948 41.3985 403.952 41.3706V38.8075C403.967 38.4926 403.87 38.1827 403.677 37.9342C403.592 37.8299 403.484 37.7459 403.362 37.6882C403.241 37.6305 403.108 37.6006 402.974 37.6005C402.83 37.5947 402.687 37.6195 402.553 37.6733C402.42 37.7272 402.299 37.8088 402.199 37.9129C401.998 38.1433 401.894 38.4441 401.911 38.7507V41.3706C401.914 41.3985 401.911 41.4268 401.902 41.4533C401.893 41.4799 401.878 41.504 401.859 41.5238C401.839 41.5437 401.815 41.5588 401.789 41.5679C401.762 41.577 401.734 41.58 401.707 41.5765H400.559C400.425 41.5765 400.362 41.5055 400.362 41.3706V38.0265C400.37 37.9696 400.366 37.9115 400.347 37.8568C400.33 37.8022 400.299 37.7525 400.259 37.7119C400.218 37.6712 400.169 37.6406 400.115 37.6225C400.061 37.6044 400.003 37.5992 399.947 37.6076H399.714C399.56 37.6076 399.482 37.5508 399.482 37.4372V36.5994C399.479 36.5476 399.493 36.496 399.522 36.4534C399.552 36.4108 399.595 36.3796 399.644 36.3651C399.888 36.2759 400.145 36.2325 400.404 36.2373C400.653 36.216 400.903 36.2659 401.124 36.3815C401.346 36.4971 401.531 36.6735 401.657 36.8905C401.894 36.6635 402.176 36.4883 402.484 36.3759C402.791 36.2635 403.119 36.2164 403.445 36.2373C403.763 36.2217 404.079 36.2817 404.369 36.4125C404.659 36.5433 404.914 36.7411 405.113 36.9899C405.346 36.7345 405.633 36.5345 405.952 36.4044C406.271 36.2742 406.614 36.2172 406.958 36.2373C407.265 36.2228 407.572 36.2728 407.859 36.3839C408.146 36.4952 408.407 36.6652 408.626 36.8834C408.84 37.111 409.005 37.38 409.113 37.6741C409.221 37.9682 409.269 38.2814 409.252 38.5945V39.9648C409.252 40.2346 409.372 40.3695 409.597 40.3695C409.706 40.3746 409.816 40.3627 409.921 40.334C410.067 40.334 410.144 40.3908 410.153 40.5044L410.217 41.3919Z" fill="#080829"/>
<path d="M327.676 35.4847C328.196 33.3793 329.398 31.5097 331.093 30.1736C332.788 28.8374 334.877 28.1116 337.028 28.1116C339.179 28.1116 341.268 28.8374 342.962 30.1736C344.657 31.5097 345.86 33.3793 346.379 35.4847H345.534C344.11 35.4636 342.714 35.8931 341.543 36.713C341.476 36.7624 341.405 36.8074 341.332 36.8479H341.234C341.16 36.8074 341.09 36.7624 341.022 36.713C339.842 35.9121 338.451 35.4843 337.028 35.4843C335.605 35.4843 334.214 35.9121 333.033 36.713C332.965 36.7624 332.895 36.8074 332.822 36.8479H332.723C332.65 36.8074 332.58 36.7624 332.512 36.713C331.342 35.8931 329.946 35.4636 328.521 35.4847H327.676ZM344.014 39.9364C344.448 39.5958 344.985 39.4176 345.534 39.4323H346.668V37.1532H345.534C344.567 37.1414 343.621 37.4452 342.838 38.0194C342.398 38.3469 341.865 38.5236 341.318 38.5236C340.771 38.5236 340.238 38.3469 339.798 38.0194C338.995 37.456 338.041 37.1538 337.063 37.1538C336.085 37.1538 335.131 37.456 334.328 38.0194C333.888 38.3469 333.355 38.5236 332.808 38.5236C332.261 38.5236 331.728 38.3469 331.287 38.0194C330.495 37.4378 329.536 37.1337 328.556 37.1532H327.388V39.4323H328.521C329.07 39.4176 329.608 39.5958 330.041 39.9364C330.842 40.5002 331.796 40.8026 332.773 40.8026C333.749 40.8026 334.703 40.5002 335.504 39.9364C335.938 39.5968 336.475 39.4188 337.024 39.4323C337.574 39.4164 338.112 39.5948 338.545 39.9364C339.347 40.4999 340.302 40.802 341.279 40.802C342.257 40.802 343.211 40.4999 344.014 39.9364ZM344.014 44.0118C344.448 43.6712 344.985 43.493 345.534 43.5077H346.668V41.2286H345.534C344.567 41.2168 343.621 41.5206 342.838 42.0948C342.398 42.4223 341.865 42.599 341.318 42.599C340.771 42.599 340.238 42.4223 339.798 42.0948C338.995 41.5314 338.041 41.2292 337.063 41.2292C336.085 41.2292 335.131 41.5314 334.328 42.0948C333.888 42.4223 333.355 42.599 332.808 42.599C332.261 42.599 331.728 42.4223 331.287 42.0948C330.495 41.5133 329.536 41.2091 328.556 41.2286H327.388V43.5077H328.521C329.07 43.493 329.608 43.6712 330.041 44.0118C330.842 44.5756 331.796 44.878 332.773 44.878C333.749 44.878 334.703 44.5756 335.504 44.0118C335.938 43.6722 336.475 43.4942 337.024 43.5077C337.574 43.4918 338.112 43.6702 338.545 44.0118C339.347 44.5753 340.302 44.8774 341.279 44.8774C342.257 44.8774 343.211 44.5753 344.014 44.0118Z" fill="#080829"/>
<path d="M7.73105 92.3334V117.505H119.356V92.3334H7.73105ZM117.948 116.085H60.9312V93.7534H117.948V116.085Z" fill="#080829"/>
<path d="M13.6644 109.136V100.767H16.5279V106.908H21.5792V109.136H13.6644Z" fill="white"/>
<path d="M32.8684 104.893C32.8684 107.558 31.2198 109.264 27.2984 109.264C23.7366 109.264 21.7178 107.793 21.7178 104.893C21.7178 102.324 23.6422 100.576 27.2984 100.576C31.0115 100.576 32.8684 102.185 32.8684 104.893ZM29.9936 104.925C29.9936 103.718 29.4967 102.75 27.2878 102.75C25.269 102.75 24.6129 103.614 24.6129 104.925C24.6129 106.258 25.2148 107.121 27.297 107.121C29.3925 107.121 29.9936 106.205 29.9936 104.925Z" fill="white"/>
<path d="M41.7263 109.136L41.6524 108.325C40.6946 109.015 39.5286 109.347 38.3546 109.264C36.5899 109.264 35.1201 108.731 34.2959 107.654C33.7522 106.869 33.4777 105.925 33.5138 104.968C33.483 104.03 33.767 103.11 34.3198 102.356C35.1539 101.311 36.6659 100.618 38.917 100.618C41.5067 100.618 43.0286 101.418 43.6832 102.761C43.8238 103.078 43.9063 103.417 43.9268 103.763H41.1872C41.1182 103.553 40.9897 103.367 40.8176 103.23C40.2719 102.865 39.6202 102.696 38.9677 102.75C38.585 102.704 38.1968 102.739 37.8288 102.855C37.4607 102.971 37.1213 103.164 36.8328 103.422C36.5052 103.874 36.3514 104.431 36.3999 104.989C36.3619 105.521 36.5033 106.051 36.8011 106.492C37.0922 106.766 37.4383 106.973 37.8157 107.1C38.1931 107.227 38.5932 107.27 38.9888 107.228C39.7747 107.292 40.5548 107.048 41.166 106.545C41.2974 106.38 41.3878 106.185 41.43 105.977H38.482V104.179H43.9986V109.136H41.7263Z" fill="white"/>
<path d="M55.9525 104.893C55.9525 107.558 54.3032 109.264 50.3824 109.264C46.8206 109.264 44.8018 107.793 44.8018 104.893C44.8018 102.324 46.7263 100.576 50.3824 100.576C54.0927 100.576 55.9525 102.185 55.9525 104.893ZM53.0777 104.925C53.0777 103.718 52.5807 102.75 50.3718 102.75C48.353 102.75 47.697 103.614 47.697 104.925C47.697 106.258 48.2995 107.121 50.381 107.121C52.4758 107.121 53.0777 106.205 53.0777 104.925Z" fill="white"/>
<path d="M65.7544 109.104V100.736H67.7957V109.104H65.7544Z" fill="#080829"/>
<path d="M78.2784 105.608C77.761 106.29 76.8706 106.602 75.6155 106.609C75.3508 106.609 71.8418 106.599 71.8418 106.599V109.104H69.8441V100.736H75.6162C76.0787 100.686 76.5468 100.736 76.9888 100.881C77.4316 101.026 77.8384 101.263 78.184 101.578C78.6402 102.177 78.8619 102.924 78.8077 103.678C78.8542 104.363 78.6676 105.044 78.2784 105.608ZM76.6404 102.879C76.4292 102.559 75.9738 102.382 75.203 102.382H71.8313V104.929H75.1812C76.0054 104.929 76.4398 104.759 76.6404 104.428C76.76 104.195 76.8107 103.933 76.7882 103.671C76.8058 103.399 76.7551 103.126 76.6404 102.879Z" fill="#080829"/>
<path d="M84.6945 109.232C80.9314 109.232 79.7798 107.812 79.7798 106.407H81.9148C81.9148 107.1 82.8552 107.622 84.7896 107.622C86.7126 107.622 87.2202 107.281 87.2202 106.726C87.2202 106.108 86.84 105.916 85.0535 105.714C84.7016 105.682 83.7435 105.565 83.3838 105.512C80.8498 105.223 79.8741 104.467 79.8741 103.113C79.8741 101.684 81.3017 100.608 84.3982 100.608C87.7593 100.608 89.0489 101.94 89.0489 103.326H86.9372C86.9372 102.623 86.1446 102.217 84.2736 102.217C82.3498 102.217 81.938 102.484 81.938 103.006C81.938 103.55 82.3604 103.72 84.4017 103.965C84.867 104.03 85.9024 104.147 86.1875 104.178C88.3443 104.402 89.3164 105.191 89.3164 106.587C89.3129 108.251 87.8333 109.232 84.6945 109.232Z" fill="#080829"/>
<path d="M95.3278 109.221C92.5699 109.221 90.7728 108.123 90.7728 105.813V100.736H92.7909V105.842C92.7909 106.898 93.6476 107.6 95.4123 107.6C97.008 107.6 97.9597 106.94 97.9597 105.842V100.736H99.9574V106.003C99.9574 108.102 98.287 109.221 95.3278 109.221Z" fill="#080829"/>
<path d="M110.896 109.104V103.518L108.307 109.104H106.341L103.825 103.518V109.104H101.925V100.736H104.5L107.353 107.111L110.27 100.736H112.805V109.104H110.896Z" fill="#080829"/>
<path d="M175.691 115.606H193.847V97.3943H175.691V115.606ZM190.353 104.748H186.516V100.9H190.353V104.748ZM179.185 100.9H183.023V108.252H190.353V112.1H179.185V100.9ZM205.671 97.3943C203.875 97.3943 202.12 97.9283 200.627 98.9289C199.134 99.9295 197.971 101.352 197.283 103.015C196.596 104.679 196.417 106.51 196.767 108.276C197.117 110.043 197.982 111.665 199.251 112.939C200.521 114.212 202.139 115.079 203.9 115.431C205.661 115.782 207.486 115.602 209.145 114.913C210.804 114.223 212.222 113.056 213.219 111.559C214.217 110.061 214.749 108.301 214.749 106.5C214.746 104.086 213.789 101.771 212.087 100.064C210.385 98.3574 208.078 97.3971 205.671 97.3943ZM205.671 112.1C204.566 112.1 203.487 111.772 202.569 111.157C201.65 110.541 200.935 109.667 200.512 108.643C200.09 107.62 199.979 106.494 200.194 105.407C200.41 104.321 200.942 103.323 201.723 102.54C202.503 101.757 203.498 101.223 204.582 101.007C205.665 100.791 206.787 100.902 207.808 101.326C208.828 101.75 209.7 102.468 210.313 103.389C210.927 104.31 211.254 105.392 211.254 106.5C211.252 107.985 210.663 109.408 209.617 110.458C208.57 111.507 207.151 112.098 205.671 112.1ZM247.236 97.3943C245.44 97.3941 243.685 97.928 242.192 98.9285C240.699 99.929 239.535 101.351 238.848 103.015C238.161 104.679 237.981 106.51 238.331 108.276C238.681 110.042 239.546 111.665 240.816 112.938C242.085 114.212 243.703 115.079 245.464 115.431C247.225 115.782 249.05 115.602 250.709 114.913C252.368 114.224 253.786 113.056 254.783 111.559C255.781 110.062 256.314 108.301 256.314 106.5C256.311 104.086 255.354 101.772 253.652 100.065C251.95 98.3576 249.643 97.3973 247.236 97.3943ZM247.236 112.1C246.132 112.101 245.052 111.772 244.133 111.157C243.215 110.542 242.5 109.667 242.077 108.644C241.654 107.62 241.543 106.494 241.759 105.408C241.974 104.321 242.506 103.323 243.287 102.54C244.068 101.757 245.063 101.223 246.146 101.007C247.229 100.791 248.352 100.902 249.372 101.326C250.392 101.75 251.264 102.467 251.877 103.389C252.491 104.31 252.819 105.392 252.819 106.5C252.817 107.985 252.228 109.408 251.181 110.457C250.135 111.507 248.716 112.098 247.236 112.1ZM226.453 97.3943C224.657 97.3943 222.902 97.9283 221.409 98.9289C219.916 99.9295 218.753 101.352 218.066 103.015C217.379 104.679 217.199 106.51 217.549 108.276C217.899 110.043 218.764 111.665 220.034 112.939C221.303 114.212 222.921 115.079 224.682 115.431C226.443 115.782 228.268 115.602 229.927 114.913C231.586 114.223 233.004 113.056 234.002 111.559C234.999 110.061 235.531 108.301 235.531 106.5C235.529 104.086 234.571 101.771 232.869 100.064C231.167 98.3574 228.86 97.3971 226.453 97.3943ZM226.453 112.1C225.424 112.101 224.415 111.816 223.537 111.278C222.659 110.74 221.947 109.968 221.479 109.05C221.01 108.131 220.804 107.1 220.883 106.071C220.962 105.042 221.323 104.055 221.925 103.219C222.528 102.382 223.35 101.729 224.299 101.332C225.249 100.934 226.29 100.808 227.306 100.966C228.323 101.124 229.276 101.561 230.061 102.228C230.846 102.896 231.431 103.768 231.754 104.748H226.453V108.252H231.754C231.385 109.371 230.674 110.344 229.723 111.035C228.771 111.726 227.627 112.099 226.453 112.1Z" fill="#080829"/>
<path d="M336.615 99.9181V97.2154H328.166V115.785H336.615V113.082C334.884 113.082 333.224 112.388 332 111.154C330.777 109.92 330.089 108.246 330.089 106.5C330.089 104.754 330.777 103.08 332 101.846C333.224 100.612 334.884 99.9181 336.615 99.9181Z" fill="#080829"/>
<path d="M336.615 99.9181V113.082C338.345 113.082 340.005 112.388 341.229 111.154C342.453 109.92 343.14 108.246 343.14 106.5C343.14 104.754 342.453 103.08 341.229 101.846C340.005 100.612 338.345 99.9181 336.615 99.9181Z" fill="#080829"/>
<path d="M347.881 101.572H349.773V110.761H347.881V101.572Z" fill="#080829"/>
<path d="M350.832 107.613C350.832 106.952 351.027 106.306 351.391 105.756C351.756 105.207 352.274 104.779 352.88 104.527C353.486 104.275 354.152 104.209 354.795 104.34C355.437 104.47 356.027 104.79 356.489 105.259C356.951 105.728 357.265 106.324 357.391 106.973C357.516 107.622 357.448 108.294 357.195 108.904C356.941 109.513 356.514 110.034 355.967 110.398C355.42 110.763 354.779 110.955 354.123 110.951C353.688 110.955 353.257 110.871 352.855 110.704C352.453 110.537 352.088 110.291 351.782 109.98C351.475 109.669 351.233 109.3 351.07 108.893C350.907 108.487 350.826 108.051 350.832 107.613ZM355.573 107.613C355.566 107.328 355.475 107.051 355.313 106.818C355.15 106.585 354.923 106.405 354.66 106.301C354.397 106.197 354.109 106.174 353.833 106.234C353.556 106.294 353.304 106.435 353.107 106.639C352.909 106.843 352.776 107.102 352.724 107.382C352.671 107.662 352.702 107.952 352.812 108.214C352.921 108.477 353.106 108.701 353.341 108.859C353.577 109.017 353.853 109.101 354.136 109.101C354.328 109.105 354.519 109.068 354.697 108.994C354.875 108.92 355.036 108.81 355.17 108.67C355.303 108.531 355.407 108.365 355.474 108.183C355.542 108.001 355.571 107.807 355.561 107.613H355.573Z" fill="#080829"/>
<path d="M364.898 104.465V110.449C364.898 112.561 363.259 113.457 361.6 113.457C361.015 113.506 360.429 113.388 359.906 113.119C359.384 112.849 358.947 112.438 358.643 111.931L360.239 111.003C360.368 111.265 360.573 111.482 360.828 111.624C361.083 111.766 361.374 111.827 361.663 111.797C361.848 111.82 362.035 111.802 362.211 111.743C362.388 111.685 362.549 111.588 362.684 111.459C362.819 111.33 362.924 111.173 362.992 110.998C363.06 110.824 363.088 110.636 363.076 110.449V109.871C362.856 110.14 362.576 110.353 362.26 110.495C361.944 110.636 361.599 110.701 361.254 110.685C360.418 110.685 359.616 110.35 359.025 109.753C358.433 109.157 358.101 108.348 358.101 107.505C358.101 106.662 358.433 105.853 359.025 105.257C359.616 104.66 360.418 104.325 361.254 104.325C361.599 104.309 361.944 104.374 362.26 104.515C362.576 104.656 362.856 104.87 363.076 105.139V104.503L364.898 104.465ZM363.076 107.486C363.088 107.182 363.01 106.88 362.852 106.621C362.693 106.362 362.462 106.157 362.187 106.031C361.911 105.906 361.605 105.866 361.308 105.918C361.01 105.969 360.735 106.11 360.517 106.32C360.299 106.531 360.148 106.803 360.085 107.1C360.021 107.398 360.047 107.708 360.16 107.991C360.272 108.273 360.466 108.515 360.716 108.686C360.966 108.857 361.261 108.948 361.563 108.948C361.76 108.963 361.957 108.935 362.143 108.868C362.329 108.8 362.499 108.694 362.641 108.556C362.784 108.418 362.896 108.252 362.971 108.067C363.046 107.883 363.082 107.685 363.076 107.486Z" fill="#080829"/>
<path d="M365.963 107.613C365.963 106.952 366.158 106.307 366.522 105.757C366.886 105.208 367.403 104.78 368.008 104.528C368.613 104.275 369.279 104.21 369.922 104.339C370.564 104.468 371.153 104.787 371.616 105.254C372.079 105.722 372.394 106.317 372.521 106.965C372.648 107.614 372.581 108.285 372.33 108.895C372.078 109.505 371.653 110.026 371.108 110.392C370.563 110.758 369.922 110.953 369.267 110.952C368.832 110.956 368.4 110.872 367.996 110.706C367.593 110.54 367.227 110.294 366.919 109.983C366.612 109.672 366.369 109.302 366.204 108.895C366.04 108.488 365.958 108.052 365.963 107.613ZM370.705 107.613C370.697 107.328 370.606 107.051 370.444 106.817C370.281 106.584 370.054 106.404 369.79 106.3C369.526 106.197 369.238 106.174 368.962 106.234C368.685 106.295 368.433 106.437 368.236 106.642C368.039 106.846 367.906 107.105 367.854 107.386C367.803 107.667 367.834 107.956 367.945 108.219C368.056 108.481 368.241 108.705 368.477 108.862C368.714 109.019 368.99 109.102 369.273 109.101C369.466 109.105 369.657 109.069 369.835 108.994C370.013 108.92 370.174 108.81 370.307 108.67C370.441 108.531 370.545 108.365 370.612 108.183C370.679 108.001 370.709 107.807 370.698 107.613H370.705Z" fill="#080829"/>
<path d="M373.447 102.78C373.447 102.556 373.513 102.337 373.636 102.151C373.76 101.965 373.935 101.82 374.14 101.734C374.345 101.648 374.571 101.626 374.788 101.67C375.006 101.713 375.206 101.821 375.363 101.98C375.52 102.138 375.627 102.34 375.67 102.559C375.714 102.779 375.691 103.006 375.606 103.213C375.521 103.42 375.378 103.597 375.193 103.721C375.008 103.845 374.791 103.912 374.57 103.912C374.273 103.909 373.989 103.788 373.78 103.577C373.57 103.365 373.451 103.079 373.447 102.78ZM373.63 104.465H375.522V110.761H373.63V104.465Z" fill="#080829"/>
<path d="M383.617 107.613C383.638 108.032 383.577 108.451 383.437 108.845C383.297 109.24 383.081 109.603 382.802 109.913C382.522 110.224 382.184 110.475 381.808 110.653C381.432 110.831 381.025 110.933 380.61 110.952C380.257 110.975 379.904 110.918 379.576 110.785C379.249 110.652 378.955 110.446 378.718 110.182V113.292H376.827V104.465H378.718V105.057C378.956 104.794 379.25 104.589 379.577 104.456C379.904 104.324 380.258 104.269 380.61 104.293C381.023 104.312 381.429 104.413 381.804 104.59C382.179 104.767 382.516 105.017 382.795 105.325C383.074 105.633 383.29 105.994 383.432 106.387C383.572 106.779 383.636 107.196 383.617 107.613ZM381.725 107.613C381.718 107.318 381.624 107.031 381.456 106.789C381.287 106.547 381.052 106.361 380.78 106.253C380.507 106.146 380.208 106.122 379.923 106.184C379.636 106.247 379.374 106.394 379.171 106.606C378.967 106.818 378.829 107.086 378.775 107.376C378.722 107.666 378.754 107.966 378.869 108.238C378.984 108.51 379.175 108.742 379.419 108.904C379.664 109.067 379.951 109.153 380.244 109.152C380.444 109.161 380.645 109.126 380.831 109.051C381.018 108.976 381.187 108.863 381.326 108.717C381.466 108.572 381.574 108.398 381.643 108.208C381.712 108.018 381.74 107.815 381.725 107.613Z" fill="#080829"/>
<path d="M389.373 108.872C389.373 110.322 388.112 110.939 386.776 110.939C386.23 110.988 385.683 110.872 385.204 110.604C384.725 110.337 384.337 109.93 384.09 109.438L385.716 108.51C385.781 108.737 385.921 108.934 386.112 109.07C386.304 109.205 386.536 109.27 386.77 109.254C387.217 109.254 387.444 109.114 387.444 108.859C387.444 108.166 384.373 108.535 384.373 106.354C384.373 104.98 385.521 104.293 386.819 104.293C387.314 104.271 387.804 104.384 388.239 104.62C388.674 104.857 389.038 105.207 389.291 105.635L387.665 106.5C387.592 106.336 387.476 106.196 387.326 106.098C387.178 106 387.004 105.947 386.826 105.947C386.499 105.947 386.303 106.074 386.303 106.297C386.303 107.022 389.373 106.545 389.373 108.872Z" fill="#080829"/>
<path d="M396.227 104.465V110.761H394.335V110.169C394.12 110.431 393.847 110.638 393.539 110.774C393.23 110.91 392.894 110.971 392.557 110.952C391.296 110.952 390.218 110.042 390.218 108.344V104.465H392.109V108.058C392.095 108.208 392.112 108.36 392.161 108.503C392.21 108.645 392.289 108.776 392.392 108.884C392.497 108.993 392.623 109.078 392.762 109.133C392.901 109.188 393.05 109.212 393.2 109.203C393.881 109.203 394.36 108.796 394.36 107.931V104.465H396.227Z" fill="#080829"/>
<path d="M406.944 106.894V110.761H405.053V107.06C405.053 106.424 404.757 106.029 404.158 106.029C403.559 106.029 403.18 106.468 403.18 107.212V110.761H401.289V107.06C401.289 106.424 400.993 106.029 400.394 106.029C399.795 106.029 399.417 106.468 399.417 107.212V110.761H397.525V104.465H399.417V105.044C399.613 104.788 399.868 104.586 400.161 104.455C400.454 104.324 400.775 104.268 401.093 104.293C401.414 104.276 401.733 104.344 402.018 104.489C402.305 104.634 402.549 104.851 402.726 105.12C402.935 104.839 403.209 104.616 403.526 104.472C403.842 104.327 404.19 104.266 404.536 104.293C406.012 104.293 406.944 105.324 406.944 106.894Z" fill="#080829"/>
<path d="M408.533 104.427C409.299 104.427 409.92 103.801 409.92 103.028C409.92 102.255 409.299 101.629 408.533 101.629C407.767 101.629 407.146 102.255 407.146 103.028C407.146 103.801 407.767 104.427 408.533 104.427Z" fill="#080829"/>
</svg>
